<svg width="300" height="15" viewBox="0 0 300 15" fill="none" xmlns="http://www.w3.org/2000/svg">
<path d="M291.91 1.23264C286.999 4.29896 285.302 7.04695 274.782 8.54568C261.833 10.392 248.944 5.98673 242.562 2.37471C240.36 1.12805 235.02 0.888328 232.964 2.37471C223.95 8.88999 203.987 7.29901 195.469 1.01111C193.374 -0.53569 186.292 -0.259588 185.422 1.51004C180.636 11.2573 159.145 12.2889 144.751 5.22405C146.322 3.3219 138.127 2.02715 135.893 3.88903C123.81 13.9605 100.222 12.8353 86.5306 3.84746C84.1545 2.28766 78.8313 2.83467 77.2962 4.30611C66.1694 14.9759 48.839 9.90019 39.114 2.55597C37.2199 1.1248 31.8181 1.62047 30.6762 2.97498C25.3615 9.28302 16.6057 10.4608 1.85488 12.0927C-0.922972 12.4007 -0.493901 14.2327 2.56088 14.078C19.4622 13.2218 28.6932 12.0791 35.6011 7.29576C49.7929 15.7177 69.6054 17.438 82.8998 8.57622C100.138 16.7767 127.829 17.7115 141.549 7.95515C156.789 15.8334 182.347 15.4455 192.581 6.8605C205.785 12.7794 225.003 13.611 238.299 6.98719C258.086 14.5477 298.553 16.2401 299.996 2.06678C300.176 0.37641 294.083 -0.124463 291.91 1.23264Z" fill="#00B2A0"/>
</svg>
